# xmcd CD database file
# Generated: tor mai 15 20:20:17 2003 by KSCD
# 
# Track frame offsets:
#       150
#       10510
#       27810
#       49092
#       60842
#       76365
#       106232
#       131990
#       153957
#       222052
#       228140
#       249347
#       267225
#       280997
#       295000
#
# Disc length: 4156 seconds
#
# Revision: 2
# Processed by: cddbd v1.4PL0 Copyright (c) Steve Scherf et al.
# Submitted via: Kscd 1.3.3
#
DISCID=bb103a0f
DTITLE=Royal Trux - Twin Infinitives
DYEAR=1900
DGENRE=
TTITLE0=Solid Gold Tooth
TTITLE1=Ice Cream
TTITLE2=Jet Pet
TTITLE3=RTX - USA
TTITLE4=Kool Down Wheels
TTITLE5=Chances Are The Comets In Our Future
TTITLE6=Yin Jim Versus The Vomit Creature
TTITLE7=Osiris
TTITLE8=(Edge Of The) Ape Oven
TTITLE9=Florida Avenue Team
TTITLE10=Lick My Boots
TTITLE11=Glitterbust
TTITLE12=Funky Son
TTITLE13=Ratcreeps
TTITLE14=NY Avenue Bridge
EXTD=1990
EXTT0=
EXTT1=
EXTT2=
EXTT3=
EXTT4=
EXTT5=
EXTT6=
EXTT7=
EXTT8=
EXTT9=
EXTT10=
EXTT11=
EXTT12=
EXTT13=
EXTT14=
PLAYORDER=
